<?xml version="1.0" encoding="utf-8"?>
<!-- Generator: Adobe Illustrator 20.1.0, SVG Export Plug-In . SVG Version: 6.00 Build 0)  -->
<svg version="1.1" id="Layer_1" xmlns="http://www.w3.org/2000/svg" xmlns:xlink="http://www.w3.org/1999/xlink" x="0px" y="0px"
	 viewBox="0 0 180 100" style="enable-background:new 0 0 180 100;" xml:space="preserve">
<style type="text/css">
	.st0{fill:#D0D9DC;}
	.st1{fill:#FFFFFF;}
</style>
<g>
	<path class="st0" d="M139.2,21.2H134c1.1,3.5,1.7,7.1,1.7,11s-0.6,7.5-1.7,11h5.3c9.3,0,16.9,7.6,16.9,16.9
		c0,9.3-7.6,16.9-16.9,16.9H72.1c-9.3,0-16.9-7.6-16.9-16.9c0-9.3,7.6-16.9,16.9-16.9h44.6c2.1-3.2,3.3-6.9,3.3-11
		c0-4-1.2-7.8-3.3-11H72.1c-21.4,0-38.8,17.4-38.8,38.8c0,21.4,17.4,38.8,38.8,38.8h67.1c21.4,0,38.8-17.4,38.8-38.8
		C178,38.6,160.6,21.2,139.2,21.2z"/>
	<path class="st1" d="M100,63.1H58.9v-6.3H100c13.6,0,24.7-11.1,24.7-24.7c0-13.6-11.1-24.7-24.7-24.7H32.9
		C19.3,7.5,8.2,18.6,8.2,32.2c0,12.6,9.8,23.4,22.4,24.6L30,63C14.3,61.5,2,48,2,32.2c0-17.1,13.9-31,31-31H100
		c17.1,0,31,13.9,31,31C131,49.2,117.1,63.1,100,63.1z"/>
</g>
</svg>
